<svg xmlns="http://www.w3.org/2000/svg" xmlns:xlink="http://www.w3.org/1999/xlink" width="703.4976" height="246.1323" viewBox="0 0 703.4976 246.1323">
  <defs>
    <linearGradient id="Gradiente_sem_nome_129" data-name="Gradiente sem nome 129" x1="27.6158" y1="225.5121" x2="107.0581" y2="146.0698" gradientUnits="userSpaceOnUse">
      <stop offset="0" stop-color="#486ce5"/>
      <stop offset="0.3474" stop-color="#456ae3"/>
      <stop offset="0.5644" stop-color="#3d65db"/>
      <stop offset="0.7455" stop-color="#2e5bcf"/>
      <stop offset="0.7765" stop-color="#2b59cc"/>
    </linearGradient>
    <linearGradient id="Gradiente_sem_nome_46" data-name="Gradiente sem nome 46" x1="13.8859" y1="163.2493" x2="133.342" y2="195.2575" gradientUnits="userSpaceOnUse">
      <stop offset="0" stop-color="#486ce5"/>
      <stop offset="0.2191" stop-color="#466be3"/>
      <stop offset="0.298" stop-color="#3f66de"/>
      <stop offset="0.3541" stop-color="#345fd3"/>
      <stop offset="0.38" stop-color="#2b59cc"/>
      <stop offset="0.4047" stop-color="#2e5bcf"/>
      <stop offset="0.5493" stop-color="#3d65db"/>
      <stop offset="0.7226" stop-color="#456ae3"/>
      <stop offset="1" stop-color="#486ce5"/>
    </linearGradient>
  </defs>
  <g id="Camada_2" data-name="Camada 2">
    <g id="Camada_1-2" data-name="Camada 1">
      <g>
        <path d="M52.5867,246.1323a10.51,10.51,0,0,1-10.5044-10.3455c-.0193-1.2535-.3755-31.0188,8.0542-58.6482,9.1866-30.1124,23.2921-47.2069,23.8881-47.92a10.5067,10.5067,0,0,1,16.1224,13.477c-.0967.1178-12.051,14.8091-19.9117,40.5745a148.7988,148.7988,0,0,0-4.2408,18.2783c11.7119-12.8842,29.4211-26.7933,30.1734-27.3819a10.5064,10.5064,0,1,1,12.9545,16.5445c-.2407.1894-17.2719,13.579-27.7372,25.1464-8.0014,8.8439-20.1407,25.7256-20.2624,25.895A10.5082,10.5082,0,0,1,52.5867,246.1323Z" fill="url(#Gradiente_sem_nome_129)"/>
        <path d="M99.6576,124.2538a10.5069,10.5069,0,0,1-7.9633-17.3554l4.4639-5.1936a10.5069,10.5069,0,0,1,15.936,13.6975l-4.4639,5.1935A10.4836,10.4836,0,0,1,99.6576,124.2538Z" fill="#486ce5"/>
        <path d="M179.6361,115.2012c0-20.2489,11.9022-31.6879,35.552-31.6879,17.4674,0,28.9063,8.0384,33.08,20.2495,1.2365,3.8644.309,5.5647-3.4006,6.956l-6.8012,2.1641c-3.71,1.3907-5.4105.4632-6.8018-3.2458-2.6273-6.9561-8.3474-10.3567-16.8489-10.3567-11.2842,0-16.8483,5.1009-16.8483,15.148v22.8773c0,9.7381,5.8737,15.1486,16.8483,15.1486,8.5015,0,14.2216-3.5554,16.8489-10.6662,1.3913-3.71,3.0916-4.3282,6.8018-3.0911l6.9554,2.0093q5.3331,2.087,3.2464,6.956c-5.41,13.7573-16.8488,20.5585-34.47,20.5585-22.8773,0-34.1612-11.4384-34.1612-31.6878Z" fill="#ececf6"/>
        <path d="M292.7859,83.5133c22.1046,0,33.0792,10.6656,33.0792,31.8426v40.0352c0,5.41-1.2366,6.956-5.5647,8.8105-6.1827,2.6279-15.4576,4.0192-27.8235,4.0192-13.1392,0-22.1045-2.0093-27.0513-6.1827-4.9461-4.0191-7.4191-10.3566-7.4191-18.8581,0-18.395,9.8928-24.8872,35.0884-24.8872,1.0823,0,6.0285.309,14.84.7733V114.738c0-10.0477-4.3282-15.3034-15.4576-15.3034q-11.361,0-16.23,7.42c-2.3188,3.2458-3.0922,3.5554-6.647,2.3183l-6.1827-2.6279c-3.4012-1.5455-4.3281-3.8638-2.6278-6.956C266.3532,88.9238,277.0194,83.5133,292.7859,83.5133Zm15.1486,50.237c-10.82-.4638-16.3851-.7727-16.8489-.7727-11.1294,0-14.839,3.2464-14.839,10.0476,0,6.956,3.2459,10.3566,14.53,10.3566a78.4612,78.4612,0,0,0,15.4576-1.2371c1.0817-.4632,1.7-1.0818,1.7-2.1635Z" fill="#ececf6"/>
        <path d="M362.655,67.3793c3.5548,0,4.7913,1.0823,4.7913,4.6371V85.9279h17.6222c3.5548,0,4.7914,1.0823,4.7914,4.6377v7.1108c0,3.5548-1.2366,4.7913-4.7914,4.7913H367.4463v31.07q0,10.8975,3.71,14.3752c2.3183,2.3189,6.956,3.4006,13.7572,3.4006,3.71,0,4.9462,1.0823,4.9462,4.7925v7.11c0,3.71-1.2366,4.792-4.9462,4.9467-12.9844.4632-22.1045-1.855-27.36-6.8012-5.4105-4.9467-8.0384-14.0668-8.0384-27.206V102.4677H338.85c-3.5554,0-4.6371-1.2365-4.6371-4.7913V90.5656c0-3.5554,1.0817-4.6377,4.6371-4.6377h10.6656V72.0164c0-3.5548,1.2366-4.6371,4.792-4.6371Z" fill="#ececf6"/>
        <path d="M432.5223,83.5133c22.1045,0,33.0791,10.6656,33.0791,31.8426v40.0352c0,5.41-1.2365,6.956-5.5646,8.8105-6.1833,2.6279-15.4576,4.0192-27.8235,4.0192-13.1393,0-22.1046-2.0093-27.0507-6.1827-4.9467-4.0191-7.42-10.3566-7.42-18.8581,0-18.395,9.8929-24.8872,35.0885-24.8872,1.0823,0,6.0284.309,14.8395.7733V114.738c0-10.0477-4.3281-15.3034-15.4575-15.3034q-11.3619,0-16.2309,7.42c-2.3183,3.2458-3.091,3.5554-6.6464,2.3183l-6.1833-2.6279c-3.4006-1.5455-4.3281-3.8638-2.6278-6.956C406.09,88.9238,416.7558,83.5133,432.5223,83.5133Zm15.1485,50.237c-10.82-.4638-16.385-.7727-16.8488-.7727-11.1294,0-14.84,3.2464-14.84,10.0476,0,6.956,3.2464,10.3566,14.5306,10.3566a78.46,78.46,0,0,0,15.4575-1.2371c1.0818-.4632,1.7-1.0818,1.7-2.1635Z" fill="#ececf6"/>
        <path d="M500.5357,163.4294c0,3.5554-1.2365,4.7914-4.7914,4.7914H487.397c-3.71,0-4.7919-1.236-4.7919-4.7914V58.6273c0-3.5554,1.0823-4.7925,4.7919-4.7925h8.3473c3.5549,0,4.7914,1.2371,4.7914,4.7925Z" fill="#ececf6"/>
        <path d="M528.3585,58.1629c7.265,0,9.4291,2.3189,9.4291,9.2749v1.3913c0,7.2644-2.1641,9.4291-9.4291,9.4291h-1.0817c-6.956,0-9.4291-2.1647-9.4291-9.4291V67.4378c0-6.956,2.1641-9.2749,9.4291-9.2749Zm3.71,29.9876c3.5548,0,4.7914,1.0823,4.7914,4.6377v70.6412c0,3.5554-1.2366,4.7914-4.7914,4.7914h-8.5021c-3.5548,0-4.6371-1.236-4.6371-4.7914V92.7882c0-3.5554,1.0823-4.6377,4.6371-4.6377Z" fill="#ececf6"/>
        <path d="M590.8055,85.8322c21.6408,0,32.1516,11.1294,32.1516,31.07v46.5274c0,3.5554-1.2365,4.7914-4.7919,4.7914h-8.5016c-3.5554,0-4.6371-1.236-4.6371-4.7914V117.3652c0-10.047-5.5647-15.1479-16.8489-15.1479a54.4435,54.4435,0,0,0-14.8389,2.01,1.4869,1.4869,0,0,0-1.0824,1.5456v57.6567c0,3.5554-1.0817,4.7914-4.6371,4.7914h-8.5015c-3.5554,0-4.792-1.236-4.792-4.7914V99.899c0-4.9467,1.0818-6.8018,6.0285-8.8111C569.1647,87.5325,579.2123,85.8322,590.8055,85.8322Z" fill="#ececf6"/>
        <path d="M631.9294,116.9015c0-21.6408,12.5207-33.3882,35.8612-33.3882,23.4959,0,35.707,13.2935,35.707,31.9974V124.94c0,4.4829-2.3182,6.6464-6.956,6.6464H649.86v5.72c0,10.0476,6.3375,15.4575,17.6216,15.4575,8.6564,0,14.6848-2.782,18.24-8.1925,2.4731-3.5554,4.1734-3.8644,7.883-1.8551l5.4105,2.9374c3.5548,1.7,4.1733,4.1734,1.8545,7.7288q-9.0427,14.8385-33.3882,14.839c-24.1138,0-35.5522-12.83-35.5522-33.0792Zm53.6376-2.4731c0-10.0471-6.0284-15.7665-17.7764-15.7665-11.5931,0-17.9306,5.7194-17.9306,15.7665v3.4006h35.707Z" fill="#ececf6"/>
        <path d="M126.7219,161.09l-.5581,23.6293a.0375.0375,0,0,1-.0612.0289,149.4367,149.4367,0,0,0-39.3175-23.332c-16.3606-6.4927-37.17-8.426-53.057-8.8132a.0376.0376,0,0,1-.0271-.0624L129.5157,39.9626a.0379.0379,0,0,1,.0668.0255l-.649,27.4756a9.4218,9.4218,0,0,0,3.7768,7.768l9.0238,6.7478a4.984,4.984,0,0,0,7.9673-3.8737l1.5909-67.3509a10.5063,10.5063,0,0,0-18.5048-7.0574L2.5042,156.7742a10.508,10.508,0,0,0,8.8427,17.2827c.4193-.0328,42.1849-3.23,67.6874,6.8916,30.6835,12.1753,48.6344,34.5068,48.8123,34.7307A10.5046,10.5046,0,0,0,140.8,218.5674a10.7846,10.7846,0,0,0,5.8068-9.449l.8827-37.3643a9.4664,9.4664,0,0,0-3.7948-7.8048l-9.0042-6.7332A4.9847,4.9847,0,0,0,126.7219,161.09Z" fill="#486ce5"/>
        <path d="M11.3469,174.0569c.4193-.0328,42.1849-3.23,67.6874,6.8916,30.6835,12.1753,48.6344,34.5068,48.8123,34.7307,2.03,2.5734-1.744-30.9306-1.744-30.9306a149.4367,149.4367,0,0,0-39.3175-23.332c-16.3606-6.4927-37.17-8.426-53.057-8.8132Z" fill="url(#Gradiente_sem_nome_46)"/>
        <path d="M65.9945,201.5485A148.7988,148.7988,0,0,1,70.2353,183.27c7.8607-25.7654,19.815-40.4567,19.9117-40.5745a10.5067,10.5067,0,0,0-16.1224-13.477c-.596.713-14.7015,17.8075-23.8881,47.92-8.43,27.6294-8.0735,57.3947-8.0542,58.6482a10.5065,10.5065,0,0,0,19.0405,5.9657Z" fill="#486ce5"/>
      </g>
    </g>
  </g>
</svg>
