<svg xmlns="http://www.w3.org/2000/svg" xmlns:xlink="http://www.w3.org/1999/xlink" width="151.2953" height="246.1323" viewBox="0 0 151.2953 246.1323">
  <defs>
    <linearGradient id="Gradiente_sem_nome_129" data-name="Gradiente sem nome 129" x1="27.6158" y1="225.5121" x2="107.0581" y2="146.0698" gradientUnits="userSpaceOnUse">
      <stop offset="0" stop-color="#486ce5"/>
      <stop offset="0.3474" stop-color="#456ae3"/>
      <stop offset="0.5644" stop-color="#3d65db"/>
      <stop offset="0.7455" stop-color="#2e5bcf"/>
      <stop offset="0.7765" stop-color="#2b59cc"/>
    </linearGradient>
    <linearGradient id="Gradiente_sem_nome_46" data-name="Gradiente sem nome 46" x1="13.8859" y1="163.2493" x2="133.342" y2="195.2575" gradientUnits="userSpaceOnUse">
      <stop offset="0" stop-color="#486ce5"/>
      <stop offset="0.2191" stop-color="#466be3"/>
      <stop offset="0.298" stop-color="#3f66de"/>
      <stop offset="0.3541" stop-color="#345fd3"/>
      <stop offset="0.38" stop-color="#2b59cc"/>
      <stop offset="0.4047" stop-color="#2e5bcf"/>
      <stop offset="0.5493" stop-color="#3d65db"/>
      <stop offset="0.7226" stop-color="#456ae3"/>
      <stop offset="1" stop-color="#486ce5"/>
    </linearGradient>
  </defs>
  <g id="Camada_2" data-name="Camada 2">
    <g id="Camada_1-2" data-name="Camada 1">
      <g>
        <path d="M52.5867,246.1323a10.51,10.51,0,0,1-10.5044-10.3455c-.0193-1.2535-.3755-31.0188,8.0542-58.6482,9.1866-30.1124,23.2921-47.2069,23.8881-47.92a10.5067,10.5067,0,0,1,16.1224,13.477c-.0967.1178-12.051,14.8091-19.9117,40.5745a148.7988,148.7988,0,0,0-4.2408,18.2783c11.7119-12.8842,29.4211-26.7933,30.1734-27.3819a10.5064,10.5064,0,1,1,12.9545,16.5445c-.2407.1894-17.2719,13.579-27.7372,25.1464-8.0014,8.8439-20.1407,25.7256-20.2624,25.895A10.5082,10.5082,0,0,1,52.5867,246.1323Z" fill="url(#Gradiente_sem_nome_129)"/>
        <path d="M99.6576,124.2538a10.5069,10.5069,0,0,1-7.9633-17.3554l4.4639-5.1936a10.5069,10.5069,0,0,1,15.936,13.6975l-4.4639,5.1935A10.4836,10.4836,0,0,1,99.6576,124.2538Z" fill="#486ce5"/>
        <path d="M126.7219,161.09l-.5581,23.6293a.0375.0375,0,0,1-.0612.0289,149.4367,149.4367,0,0,0-39.3175-23.332c-16.3606-6.4927-37.17-8.426-53.057-8.8132a.0376.0376,0,0,1-.0271-.0624L129.5157,39.9626a.0379.0379,0,0,1,.0668.0255l-.649,27.4756a9.4218,9.4218,0,0,0,3.7768,7.768l9.0238,6.7478a4.984,4.984,0,0,0,7.9673-3.8737l1.5909-67.3509a10.5063,10.5063,0,0,0-18.5048-7.0574L2.5042,156.7742a10.508,10.508,0,0,0,8.8427,17.2827c.4193-.0328,42.1849-3.23,67.6874,6.8916,30.6835,12.1753,48.6344,34.5068,48.8123,34.7307A10.5046,10.5046,0,0,0,140.8,218.5674a10.7846,10.7846,0,0,0,5.8068-9.449l.8827-37.3643a9.4664,9.4664,0,0,0-3.7948-7.8048l-9.0042-6.7332A4.9847,4.9847,0,0,0,126.7219,161.09Z" fill="#486ce5"/>
        <path d="M11.3469,174.0569c.4193-.0328,42.1849-3.23,67.6874,6.8916,30.6835,12.1753,48.6344,34.5068,48.8123,34.7307,2.03,2.5734-1.744-30.9306-1.744-30.9306a149.4367,149.4367,0,0,0-39.3175-23.332c-16.3606-6.4927-37.17-8.426-53.057-8.8132Z" fill="url(#Gradiente_sem_nome_46)"/>
        <path d="M65.9945,201.5485A148.7988,148.7988,0,0,1,70.2353,183.27c7.8607-25.7654,19.815-40.4567,19.9117-40.5745a10.5067,10.5067,0,0,0-16.1224-13.477c-.596.713-14.7015,17.8075-23.8881,47.92-8.43,27.6294-8.0735,57.3947-8.0542,58.6482a10.5065,10.5065,0,0,0,19.0405,5.9657Z" fill="#486ce5"/>
      </g>
    </g>
  </g>
</svg>
